<svg width="237" height="173" viewBox="0 0 237 173" fill="none" xmlns="http://www.w3.org/2000/svg">
<g clip-path="url(#clip0_158_83)">
<path d="M148.446 156.335H99.4005C92.0443 156.335 86.0596 150.351 86.0596 142.994V13.341C86.0596 5.98477 92.0443 0 99.4005 0H148.446C155.802 0 161.787 5.98477 161.787 13.341C162.7 65.4058 164.257 123.71 161.787 142.994C161.787 150.351 155.802 156.335 148.446 156.335L148.446 156.335Z" fill="#3F3D56"/>
<path d="M162.471 47.6908C162.159 47.6908 161.906 47.9439 161.906 48.2552V66.3156C161.906 66.6269 162.159 66.88 162.471 66.88C162.782 66.88 163.035 66.6269 163.035 66.3156V48.2552C163.035 47.9439 162.782 47.6908 162.471 47.6908Z" fill="#3F3D56"/>
<path d="M160.517 13.341V142.992C160.517 149.395 155.533 154.633 149.232 155.039H149.229C149.136 155.045 149.043 155.05 148.947 155.053C148.78 155.062 148.614 155.064 148.445 155.064C148.445 155.064 147.824 155.019 146.689 154.935C145.544 154.85 143.876 154.723 141.796 154.556C141.172 154.508 140.515 154.455 139.821 154.398C138.438 154.286 136.92 154.161 135.291 154.02C134.642 153.967 133.971 153.907 133.285 153.848C129.78 153.546 125.855 153.193 121.715 152.793C121.015 152.728 120.31 152.66 119.599 152.59C119.412 152.57 87.3293 144.505 87.3293 142.992V13.341C87.3293 6.67282 92.7334 1.2688 99.4016 1.2688H106.609C107.76 1.2688 108.686 2.16617 108.785 3.3147C108.793 3.3909 108.801 3.46708 108.816 3.54328C109.024 4.69746 110.083 5.50171 111.257 5.50171H136.59C137.763 5.50171 138.822 4.69746 139.031 3.54328C139.045 3.46709 139.053 3.3909 139.062 3.3147C139.16 2.16618 140.086 1.2688 141.237 1.2688H148.445C155.113 1.2688 160.517 6.67282 160.517 13.341H160.517Z" fill="white"/>
<path d="M85.7773 34.1455C85.466 34.1455 85.2129 34.3986 85.2129 34.7099V39.225C85.2129 39.5363 85.466 39.7894 85.7773 39.7894C86.0886 39.7894 86.3417 39.5363 86.3417 39.225V34.7099C86.3417 34.3986 86.0886 34.1455 85.7773 34.1455Z" fill="#3F3D56"/>
<path d="M85.7773 47.6908C85.466 47.6908 85.2129 47.9439 85.2129 48.2552V57.0032C85.2129 57.3145 85.466 57.5676 85.7773 57.5676C86.0886 57.5676 86.3417 57.3145 86.3417 57.0032V48.2552C86.3417 47.9439 86.0886 47.6908 85.7773 47.6908V47.6908Z" fill="#3F3D56"/>
<path d="M85.7773 60.1073C85.466 60.1073 85.2129 60.3604 85.2129 60.6717V69.4197C85.2129 69.731 85.466 69.9841 85.7773 69.9841C86.0886 69.9841 86.3417 69.731 86.3417 69.4197V60.6717C86.3417 60.3604 86.0886 60.1073 85.7773 60.1073Z" fill="#3F3D56"/>
<path d="M106.424 3.24524H95.6081C95.5557 3.24524 95.5132 3.28773 95.5132 3.34014V4.5613C95.5132 4.61372 95.5557 4.65621 95.6081 4.65621H106.424C106.476 4.65621 106.519 4.61372 106.519 4.5613V3.34014C106.519 3.28773 106.476 3.24524 106.424 3.24524Z" fill="#E6E6E6"/>
<path d="M143.021 4.65623C143.644 4.65623 144.149 4.15086 144.149 3.52746C144.149 2.90405 143.644 2.39868 143.021 2.39868C142.397 2.39868 141.892 2.90405 141.892 3.52746C141.892 4.15086 142.397 4.65623 143.021 4.65623Z" fill="#E6E6E6"/>
<path d="M146.125 4.65623C146.748 4.65623 147.254 4.15086 147.254 3.52746C147.254 2.90405 146.748 2.39868 146.125 2.39868C145.501 2.39868 144.996 2.90405 144.996 3.52746C144.996 4.15086 145.501 4.65623 146.125 4.65623Z" fill="#E6E6E6"/>
<path d="M149.229 4.65623C149.853 4.65623 150.358 4.15086 150.358 3.52746C150.358 2.90405 149.853 2.39868 149.229 2.39868C148.606 2.39868 148.1 2.90405 148.1 3.52746C148.1 4.15086 148.606 4.65623 149.229 4.65623Z" fill="#E6E6E6"/>
<path d="M33.3792 156.366C33.3792 156.568 33.5413 156.73 33.7432 156.73H201.485C201.687 156.73 201.849 156.568 201.849 156.366C201.849 156.164 201.687 156.002 201.485 156.002H33.7432C33.5413 156.002 33.3792 156.164 33.3792 156.366Z" fill="#CCCCCC"/>
<path d="M86.8626 153.975L83.4227 153.975L81.7864 140.706L86.8633 140.707L86.8626 153.975Z" fill="#FFB6B6"/>
<path d="M75.0772 153.897C74.9701 154.077 74.9136 154.66 74.9136 154.869C74.9136 155.514 75.4363 156.037 76.0811 156.037H86.734C87.1738 156.037 87.5304 155.68 87.5304 155.24V154.797C87.5304 154.797 88.0574 153.464 86.9725 151.821C86.9725 151.821 85.624 153.107 83.609 151.092L83.0148 150.016L78.7136 153.162L76.3296 153.455C75.808 153.519 75.3455 153.445 75.0772 153.897H75.0772V153.897H75.0772Z" fill="#2F2E41"/>
<path d="M67.8395 135.546L64.3997 135.535L62.8054 122.261L67.8823 122.278L67.8395 135.546Z" fill="#FFB6B6"/>
<path d="M56.0546 135.431C55.947 135.611 55.8886 136.193 55.8879 136.402C55.8859 137.047 56.4069 137.572 57.0517 137.574L67.7046 137.607C68.1444 137.609 68.5022 137.253 68.5036 136.813L68.505 136.37C68.505 136.37 69.0362 135.039 67.9565 133.392C67.9565 133.392 66.6039 134.674 64.5953 132.653L64.0045 131.575L59.6934 134.707L57.3084 134.993C56.7866 135.055 56.3244 134.98 56.0547 135.431H56.0546V135.431Z" fill="#2F2E41"/>
<path d="M81.8458 73.4248L77.5627 73.7307C77.5627 73.7307 63.0626 81.975 61.8389 83.8106C60.6151 85.6462 58.9325 88.2467 60.4622 91.0001C61.9918 93.7535 60.8276 127.092 60.8276 127.092L68.1373 125.439L72.8206 90.5573L82.6106 89.1805C82.6106 89.1805 85.9759 96.4411 84.7522 102.448C83.5284 108.455 82.9165 112.126 82.9165 112.126L81.3869 147.614L87.3526 147.461L92.7065 114.573L101.885 88.5687L89.9531 74.4956L81.8458 73.4248Z" fill="#2F2E41"/>
<path d="M102.955 35.7947L94.083 36.7125L93.1652 39.7719L84.599 44.3609L87.3524 63.6349L85.2108 67.0002L86.1286 70.3655C86.1286 70.3655 83.6811 70.6715 83.9871 72.5071L78.4802 73.4249C78.4802 73.4249 85.7842 74.916 87.3331 82.2778C88.8821 89.6395 101.731 90.5573 101.731 90.5573L111.827 59.0459L112.745 40.3837L105.709 38.5481L102.955 35.7947Z" fill="#E6E6E6"/>
<path d="M98.2796 34.6337C102.089 34.6337 105.177 31.5458 105.177 27.7366C105.177 23.9275 102.089 20.8396 98.2796 20.8396C94.4705 20.8396 91.3826 23.9275 91.3826 27.7366C91.3826 31.5458 94.4705 34.6337 98.2796 34.6337Z" fill="#FFB6B6"/>
<path d="M94.6949 33.9591C94.6949 33.9591 88.5762 33.6531 89.188 28.7581C87.6736 23.5455 89.0141 20.161 93.7771 18.9682C93.7771 18.9682 95.0008 18.6622 95.3068 18.6622C99.3307 18.6622 101.426 19.886 101.426 19.886C101.426 19.886 101.12 18.6743 101.426 18.9742C101.731 19.2741 102.037 19.886 102.037 19.886C102.037 19.886 105.097 21.4157 105.097 24.475C105.097 27.5344 105.097 26.3106 105.097 26.3106C105.097 26.3106 104.485 26.3106 103.873 24.475C103.261 22.6394 99.2996 23.8632 99.2996 23.8632L99.5899 24.475L98.6721 24.1691L97.7543 25.0869L97.1424 24.781C97.1424 24.781 94.6949 24.781 95.0008 24.781C95.3068 24.781 95.0936 26.8601 95.0936 26.8601L92.8593 29.37L95.3068 33.9591H94.6949Z" fill="#2F2E41"/>
<path d="M62.0962 70.4738C60.3544 71.4244 59.4328 73.0936 60.0378 74.202C60.6427 75.3104 62.5451 75.4383 64.2869 74.4877C65.0494 74.0716 65.6546 73.5178 66.0435 72.9336L73.3735 68.8129L71.3665 65.4143L64.3536 69.8372C63.6519 69.8482 62.8587 70.0576 62.0962 70.4738H62.0962Z" fill="#FFB6B6"/>
<path d="M86.8154 44.5035C86.8154 44.5035 83.942 43.4095 82.952 44.7264C81.962 46.0433 75.422 62.0225 75.422 62.0225L65.8267 67.0338L68.525 71.7326L80.8809 67.6189L89.0331 52.7095L86.8154 44.5035Z" fill="#E6E6E6"/>
<path d="M177.425 96.9814V129.411C177.425 132.279 175.092 134.612 172.224 134.612H92.0684C89.2005 134.612 86.8674 132.279 86.8674 129.411V96.9814C86.8674 94.1136 89.2005 91.7805 92.0684 91.7805H172.224C175.092 91.7805 177.425 94.1136 177.425 96.9814Z" fill="white"/>
<path d="M177.425 96.9814V129.411C177.425 132.279 175.092 134.612 172.224 134.612H92.0684C89.2005 134.612 86.8674 132.279 86.8674 129.411V96.9814C86.8674 94.1136 89.2005 91.7805 92.0684 91.7805H172.224C175.092 91.7805 177.425 94.1136 177.425 96.9814ZM172.224 134C174.758 134 176.813 131.945 176.813 129.411V113.061C176.813 101.646 167.559 92.3924 156.144 92.3924H92.0684C89.5339 92.3924 87.4793 94.447 87.4793 96.9814V129.411C87.4793 131.945 89.5339 134 92.0684 134H172.224Z" fill="#3F3D56"/>
<path d="M122.849 111.373H112.38C112.116 111.373 111.901 111.588 111.901 111.852C111.901 112.116 112.116 112.33 112.38 112.33H122.849C123.113 112.33 123.328 112.116 123.328 111.852C123.328 111.588 123.113 111.373 122.849 111.373Z" fill="#216095"/>
<path d="M138.758 111.373H128.289C128.025 111.373 127.81 111.588 127.81 111.852C127.81 112.116 128.025 112.33 128.289 112.33H138.758C139.022 112.33 139.236 112.116 139.236 111.852C139.236 111.588 139.022 111.373 138.758 111.373Z" fill="#216095"/>
<path d="M122.849 116.606H112.38C112.116 116.606 111.901 116.821 111.901 117.085C111.901 117.349 112.116 117.564 112.38 117.564H122.849C123.113 117.564 123.328 117.349 123.328 117.085C123.328 116.821 123.113 116.606 122.849 116.606Z" fill="#216095"/>
<path d="M138.758 116.606H128.289C128.025 116.606 127.81 116.821 127.81 117.085C127.81 117.349 128.025 117.564 128.289 117.564H138.758C139.022 117.564 139.236 117.349 139.236 117.085C139.236 116.821 139.022 116.606 138.758 116.606Z" fill="#216095"/>
<path d="M155.145 117.085C155.145 116.821 154.93 116.606 154.667 116.606H144.197C143.933 116.606 143.719 116.821 143.719 117.085C143.719 117.349 143.933 117.564 144.197 117.564H154.667C154.93 117.564 155.145 117.349 155.145 117.085Z" fill="#216095"/>
<path d="M116.73 107.194C116.994 107.194 117.209 106.98 117.209 106.716C117.209 106.452 116.994 106.237 116.73 106.237H106.261C105.997 106.237 105.782 106.452 105.782 106.716C105.782 106.98 105.997 107.194 106.261 107.194H116.73Z" fill="#216095"/>
<path d="M147.562 107H158.032C158.295 107 158.51 106.785 158.51 106.521C158.51 106.257 158.295 106.042 158.032 106.042H147.562C147.298 106.042 147.083 106.257 147.083 106.521C147.083 106.785 147.298 107 147.562 107Z" fill="#216095"/>
<path d="M121.141 107.1H142.846C143.11 107.1 143.325 106.886 143.325 106.622C143.325 106.358 143.11 106.143 142.846 106.143H121.141C120.877 106.143 120.662 106.358 120.662 106.622C120.662 106.886 120.877 107.1 121.141 107.1Z" fill="#216095"/>
<path d="M129.681 121.361H119.211C118.947 121.361 118.733 121.576 118.733 121.84C118.733 122.104 118.947 122.318 119.211 122.318H129.681C129.945 122.318 130.159 122.104 130.159 121.84C130.159 121.576 129.945 121.361 129.681 121.361Z" fill="#216095"/>
<path d="M163.493 96.7368V129.166C163.493 132.034 161.16 134.367 158.292 134.367H125.863C122.995 134.367 120.662 132.034 120.662 129.166V96.7368C120.662 93.869 122.995 91.5359 125.863 91.5359H158.292C161.16 91.5359 163.493 93.869 163.493 96.7368Z" fill="white"/>
<path d="M163.493 96.7368V129.166C163.493 132.034 161.16 134.367 158.292 134.367H125.863C122.995 134.367 120.662 132.034 120.662 129.166V96.7368C120.662 93.869 122.995 91.5359 125.863 91.5359H158.292C161.16 91.5359 163.493 93.869 163.493 96.7368ZM156.281 133.755C159.926 133.755 162.881 130.8 162.881 127.154V112.817C162.881 101.401 153.628 92.1478 142.213 92.1478H125.863C123.329 92.1478 121.274 94.2023 121.274 96.7368V124.641C121.274 129.675 125.354 133.755 130.388 133.755H156.281V133.755H156.281Z" fill="#3F3D56"/>
<path d="M146.395 104.781H135.925C135.661 104.781 135.447 104.566 135.447 104.302C135.447 104.038 135.661 103.823 135.925 103.823H146.395C146.659 103.823 146.873 104.038 146.873 104.302C146.873 104.566 146.659 104.781 146.395 104.781V104.781Z" fill="#216095"/>
<path d="M146.395 114.988H135.925C135.661 114.988 135.447 114.773 135.447 114.509C135.447 114.245 135.661 114.03 135.925 114.03H146.395C146.659 114.03 146.873 114.245 146.873 114.509C146.873 114.773 146.659 114.988 146.395 114.988V114.988Z" fill="#216095"/>
<path d="M141.193 129.061H130.724C130.46 129.061 130.245 128.846 130.245 128.582C130.245 128.318 130.46 128.104 130.724 128.104H141.193C141.457 128.104 141.672 128.318 141.672 128.582C141.672 128.846 141.457 129.061 141.193 129.061V129.061Z" fill="#216095"/>
<path d="M152.012 109.887H130.307C130.043 109.887 129.828 109.673 129.828 109.409C129.828 109.145 130.043 108.93 130.307 108.93H152.012C152.276 108.93 152.491 109.145 152.491 109.409C152.491 109.673 152.276 109.887 152.012 109.887V109.887Z" fill="#216095"/>
<path d="M157.391 78.767C157.391 68.6506 148.841 63.0854 139.074 60.4496C126.551 57.0702 117.38 63.9085 120.756 78.767C121.521 82.1346 123.351 86.0677 125.616 89.432H143.591C149.596 85.523 157.391 86.6193 157.391 78.767H157.391Z" fill="#216095"/>
<path d="M138.805 97.8911C139.828 95.9418 141.124 94.5355 142.552 93.4651H125.717C130.05 99.6547 135.796 103.627 138.805 97.8911Z" fill="#216095"/>
<path d="M136.862 67.937C137.943 67.937 138.819 68.8132 138.819 69.894V73.8081H134.905V69.894C134.905 68.8132 135.781 67.937 136.862 67.937ZM139.798 73.808V69.894C139.798 68.2728 138.484 66.9585 136.862 66.9585C135.241 66.9585 133.927 68.2728 133.927 69.894V73.808C132.846 73.808 131.97 74.6842 131.97 75.7651V80.6576C131.97 81.7384 132.846 82.6146 133.927 82.6146H139.798C140.879 82.6146 141.755 81.7384 141.755 80.6576V75.7651C141.755 74.6842 140.879 73.808 139.798 73.808H139.798ZM133.927 74.7866H139.798C140.338 74.7866 140.776 75.2246 140.776 75.7651V80.6576C140.776 81.198 140.338 81.6361 139.798 81.6361H133.927C133.386 81.6361 132.948 81.198 132.948 80.6576V75.7651C132.948 75.2246 133.386 74.7866 133.927 74.7866Z" fill="white"/>
<path d="M108.895 90.7235C108.659 92.6937 109.484 94.4126 110.738 94.5628C111.992 94.7129 113.2 93.2375 113.436 91.2672C113.539 90.4048 113.439 89.5905 113.189 88.9349L114.084 80.5738L110.151 80.2373L109.686 88.5154C109.288 89.0934 108.999 89.861 108.895 90.7235Z" fill="#FFB6B6"/>
<path d="M109.839 40.8426C109.839 40.8426 114.122 39.6188 115.04 41.4545C115.958 43.2901 118.099 67.4591 118.099 67.4591L113.969 86.7512L109.227 85.5093L111.675 65.9294L108.309 51.2444L109.839 40.8426Z" fill="#E6E6E6"/>
<path d="M46.8973 99.5334C56.7817 99.5334 64.7946 91.5205 64.7946 81.6361C64.7946 71.7517 56.7817 63.7388 46.8973 63.7388C37.0129 63.7388 29 71.7517 29 81.6361C29 91.5205 37.0129 99.5334 46.8973 99.5334Z" fill="#216095"/>
<path d="M46.8973 73.6239C48.1616 73.6239 49.1865 74.6488 49.1865 75.913V80.4914H44.6081V75.913C44.6081 74.6488 45.633 73.6239 46.8973 73.6239ZM50.3311 80.4914V75.913C50.3311 74.0166 48.7937 72.4792 46.8973 72.4792C45.0009 72.4792 43.4635 74.0166 43.4635 75.913V80.4914C42.1992 80.4914 41.1743 81.5163 41.1743 82.7806V88.5036C41.1743 89.7679 42.1992 90.7928 43.4635 90.7928H50.3311C51.5954 90.7928 52.6203 89.7679 52.6203 88.5036V82.7806C52.6203 81.5163 51.5954 80.4914 50.3311 80.4914H50.3311ZM43.4635 81.636H50.3311C50.9632 81.636 51.4757 82.1485 51.4757 82.7806V88.5036C51.4757 89.1357 50.9632 89.6482 50.3311 89.6482H43.4635C42.8314 89.6482 42.3189 89.1357 42.3189 88.5036V82.7806C42.3189 82.1485 42.8314 81.636 43.4635 81.636Z" fill="white"/>
</g>
<path d="M220.5 145L0 145.286C17.512 154.501 55.0858 172.841 65.2853 172.481C78.0348 172.032 75.028 166.839 90.519 159.891C106.01 152.943 119.519 159.854 120.519 159.852C121.519 159.851 160.288 174.09 165.781 168.887C171.274 163.683 196.519 159.754 200.519 159.748C203.719 159.744 215.173 149.914 220.5 145Z" fill="url(#paint0_linear_158_83)" fill-opacity="0.2"/>
<defs>
<linearGradient id="paint0_linear_158_83" x1="110.25" y1="145.143" x2="110.285" y2="172.428" gradientUnits="userSpaceOnUse">
<stop stop-color="#1C9CD0" stop-opacity="0.4"/>
<stop offset="1" stop-color="#216095"/>
</linearGradient>
<clipPath id="clip0_158_83">
<rect width="172.849" height="156.73" fill="white" transform="translate(29)"/>
</clipPath>
</defs>
</svg>
